<svg viewBox="0 0 246.78 58.71" xmlns="http://www.w3.org/2000/svg"><path d="m26.56 0v18.19h-8.56v-9.59h-7.21v11.93l8.76 5v9.36l-8.76-5v28.82h-8.6v-32.45h2.26l-2.26-1.26-2.19-1.3v-9.36l2.19 1.21v-15.55z"/><path d="m46.87 0h8.6v24.45l-4.15 2.34 4.15 2.42v29.5h-8.6v-23.16h2.64l-.15-.08-2.49-1.47-7.17-4.11v28.82h-8.61v-58.71zm0 24.6v-16h-7.17v11.85z"/><path d="m85.05 0v18.19h-8.6v-9.59h-7.17v11.93l8.75 5v9.36l-8.75-5v20.22h7.17v-11.62l8.6 4.9v15.32h-24.37v-32.45h2.26l-2.26-1.26-2.19-1.3v-9.36l2.19 1.21v-15.55z"/><path d="m114.64 0v18.19h-8.64v-9.59h-7.14v11.93l8.76 5v9.36l-8.76-5v20.22h7.14v-11.62l8.61 4.9v15.32h-24.35v-32.45h2.26l-2.26-1.26-2.19-1.3v-9.36l2.19 1.21v-15.55z"/><path d="m159.39 43.39v15.32h-24.39v-58.71h8.6v50.11h7.17v-11.62z"/><path d="m179.69 0h8.6v58.71h-8.6v-23.16h2.64l-.15-.08-2.49-1.47-7.17-4.15v28.86h-8.6v-58.71zm0 24.6v-16h-7.17v11.85z"/><path d="m217.19 18.26v-18.26h-24.37v58.71h24.37v-10-.99-7.48l-8.6-4.98v12.52.63 1.7h-7.17v-41.51h7.17v9.66z"/><path d="m246.78 0v18.19h-8.6v-9.59h-7.18v11.93l8.75 5v9.36l-8.75-5v20.22h7.17v-11.62l8.6 4.9v15.32h-24.37v-32.45h2.27l-2.27-1.26-2.19-1.28v-9.38l2.19 1.21v-15.55z"/></svg>